<svg xmlns="http://www.w3.org/2000/svg" xmlns:xlink="http://www.w3.org/1999/xlink" viewBox="0 0 1003.81 1244.95"><defs><style>.cls-1{fill:none;}.cls-2{clip-path:url(#clip-path);}.cls-3{fill:#ff0049;}.cls-4{fill:#ffc425;}.cls-5{fill:#ff6a29;}.cls-6{fill:#00aedb;}</style><clipPath id="clip-path"><rect class="cls-1" x="188.63" y="137" width="750" height="1334"/></clipPath></defs><title>background</title><g id="Layer_2" data-name="Layer 2"><g id="Layer_1-2" data-name="Layer 1"><g class="cls-2"><path class="cls-3" d="M108.89,368.2c-52.51-17.7-98-61.69-107.37-116.31s25.12-116.18,79.25-128c25.59-5.6,53.22-.6,77.67-10,46.11-17.73,61.79-77.72,104.39-102.74C303.88-13,360.16,4.41,390.74,40.89s39.5,86.82,37.63,134.39c-2.76,69.88-32.45,145.25-95.84,174.8C279.11,375,166.18,382,108.89,368.2"/><path class="cls-4" d="M789,234.11a34.56,34.56,0,0,0-21.31,20.68,35.49,35.49,0,0,0,2.66,29.63c9.9,17.06,35.32,22.55,51.38,11.11s19.16-37.27,6.27-52.2-38.89-15.61-52.55-1.39"/><path class="cls-5" d="M988.24,863.24c34.12,57.49,9.52,145.84-48,180s-144.61,1.35-178.73-56.13a121,121,0,0,1,42.3-165.87C861.33,787.08,954.12,805.76,988.24,863.24Z"/><path class="cls-6" d="M325.19,1083.77c28.38,47.81,7.93,121.28-39.88,149.66s-120.26,1.12-148.64-46.68a100.67,100.67,0,0,1,35.18-137.94C219.66,1020.44,296.82,1036,325.19,1083.77Z"/></g></g></g></svg>