<svg xmlns="http://www.w3.org/2000/svg" viewBox="0 0 396.77 347.33"><defs><style>.cls-1{fill:#00b159;}.cls-2{fill:#fff;}</style></defs><title>logo_1</title><g id="Layer_2" data-name="Layer 2"><g id="Layer_1-2" data-name="Layer 1"><path class="cls-1" d="M322,114.67c-23.69-5.18-49.26-.55-71.9-9.26C207.41,89,192.9,33.46,153.46,10.3,115.46-12,63.36,4.08,35.05,37.86S-1.52,118.23.22,162.26c2.55,64.7,30,134.47,88.72,161.82,49.45,23.05,154,29.59,207,16.78,48.61-16.39,90.76-57.11,99.4-107.67S372.11,125.63,322,114.67Z"/><path class="cls-2" d="M58.32,150.84a29.35,29.35,0,0,1,6.93.77,33.69,33.69,0,0,1,4.86,1.48L67.5,163.8a17.5,17.5,0,0,0-3.91-1.21,21,21,0,0,0-3.92-.41,10.9,10.9,0,0,0-4.09.68A6.31,6.31,0,0,0,53,164.7a7.12,7.12,0,0,0-1.35,2.79,14.44,14.44,0,0,0-.41,3.51v2.34H67.77V184.5H51.21v36.18H37.8V170.82q0-9.18,5.18-14.58T58.32,150.84Z"/><path class="cls-2" d="M116.19,219.06A77.31,77.31,0,0,1,96,221.76a26.9,26.9,0,0,1-10-1.62,15.24,15.24,0,0,1-6.35-4.54,17.76,17.76,0,0,1-3.33-7,37.51,37.51,0,0,1-1-8.91V173.34H88.74v24.75q0,6.48,1.71,9.36t6.39,2.88c1,0,2,0,3.06-.13s2-.2,2.88-.32V173.34h13.41Z"/><path class="cls-2" d="M128.79,175a74.87,74.87,0,0,1,8.82-1.84,72.47,72.47,0,0,1,11.34-.86,27.64,27.64,0,0,1,10,1.58,15,15,0,0,1,6.34,4.45,17.36,17.36,0,0,1,3.33,6.84,36.39,36.39,0,0,1,1,8.82v26.73H156.24V195.57q0-6.48-1.71-9.18t-6.39-2.7c-1,0-2,.05-3.06.14s-2,.19-2.88.31v36.54H128.79Z"/><path class="cls-2" d="M202.32,150.84a29.35,29.35,0,0,1,6.93.77,33.69,33.69,0,0,1,4.86,1.48L211.5,163.8a17.5,17.5,0,0,0-3.91-1.21,21,21,0,0,0-3.92-.41,10.9,10.9,0,0,0-4.09.68A6.25,6.25,0,0,0,197,164.7a7.12,7.12,0,0,0-1.35,2.79,14.44,14.44,0,0,0-.41,3.51v2.34h16.56V184.5H195.21v36.18H181.8V170.82q0-9.18,5.18-14.58T202.32,150.84Z"/><path class="cls-2" d="M236.07,172.08a31.05,31.05,0,0,1,9.9,1.35,15.39,15.39,0,0,1,6.35,3.87,14.22,14.22,0,0,1,3.37,6.12,30.24,30.24,0,0,1,1,8v27.9q-2.88.63-8,1.49a77,77,0,0,1-12.42.85,39.33,39.33,0,0,1-8.32-.81,18.09,18.09,0,0,1-6.44-2.65,12.16,12.16,0,0,1-4.14-4.82,16.62,16.62,0,0,1-1.44-7.29,13.74,13.74,0,0,1,1.67-7,12.8,12.8,0,0,1,4.45-4.59,20.13,20.13,0,0,1,6.39-2.47,35.85,35.85,0,0,1,7.47-.77,42.41,42.41,0,0,1,4.64.23,21.83,21.83,0,0,1,3.28.58V190.8a7.42,7.42,0,0,0-2.07-5.49q-2.07-2.07-7.2-2.07a45.85,45.85,0,0,0-6.75.5,29.69,29.69,0,0,0-5.76,1.39l-1.71-10.8c.78-.23,1.76-.49,2.93-.76s2.44-.51,3.82-.72,2.84-.39,4.37-.54S234.51,172.08,236.07,172.08Zm1.08,39.24q2,0,3.78-.09a26.3,26.3,0,0,0,2.88-.27V200.79c-.54-.12-1.35-.23-2.43-.36a27.06,27.06,0,0,0-3-.18,26.36,26.36,0,0,0-3.55.23,9.59,9.59,0,0,0-2.93.85,5,5,0,0,0-2,1.71,4.76,4.76,0,0,0-.72,2.7c0,2.11.71,3.56,2.12,4.37A11.64,11.64,0,0,0,237.15,211.32Z"/><path class="cls-2" d="M266.58,197a27.65,27.65,0,0,1,1.67-9.67,22.64,22.64,0,0,1,12.46-13.28,25.41,25.41,0,0,1,10.26-2,33.1,33.1,0,0,1,6.93.68,33.72,33.72,0,0,1,6.12,1.93l-2.79,10.71a33.8,33.8,0,0,0-4.14-1.26,21.64,21.64,0,0,0-5-.54q-5.94,0-8.86,3.69c-2,2.46-2.93,5.71-2.93,9.72q0,6.39,2.74,9.9t9.59,3.51a32.89,32.89,0,0,0,5.22-.45,22.19,22.19,0,0,0,5.13-1.44l1.89,11a31.46,31.46,0,0,1-5.85,1.71,38.59,38.59,0,0,1-7.74.72A29.14,29.14,0,0,1,280.08,220a20.93,20.93,0,0,1-7.69-5.27,20.39,20.39,0,0,1-4.41-7.87A33.1,33.1,0,0,1,266.58,197Z"/><path class="cls-2" d="M313.38,161.55l13.41-2.16v14H342.9V184.5H326.79v16.65a13.19,13.19,0,0,0,1.49,6.75q1.49,2.52,6,2.52a25.46,25.46,0,0,0,4.45-.4,22.79,22.79,0,0,0,4.19-1.13l1.89,10.44a36.9,36.9,0,0,1-5.4,1.71,31.47,31.47,0,0,1-7.29.72,24,24,0,0,1-9.09-1.48,14.26,14.26,0,0,1-5.76-4.14,15.3,15.3,0,0,1-3-6.44,37.38,37.38,0,0,1-.86-8.37Z"/><path class="cls-2" d="M371,213.32a7.52,7.52,0,0,1-2.56,6.16,9,9,0,0,1-11.61,0,8.68,8.68,0,0,1,0-12.33,9,9,0,0,1,11.61,0A7.54,7.54,0,0,1,371,213.32Z"/></g></g></svg>